# xmcd CD database file
#
# Track frame offsets:
#	150
#	45576
#	66438
#	97713
#	128611
#	171890
#
# Disc length: 2698 seconds
#
# Revision: 0
# Processed by: cddbd v1.4PL0 Copyright (c) Steve Scherf et al.
# Submitted via: CDex 1.50Beta6
#
DISCID=450a8806
DTITLE=Neu - Neu !
DYEAR=1900
DGENRE=New Age
TTITLE0=Hallogallo
TTITLE1=Sonderangebot
TTITLE2=Weissensee
TTITLE3=Im Glück
TTITLE4=Neujatiehand
TTITLE5=Lieber Honig
EXTD=
EXTT0=
EXTT1=
EXTT2=
EXTT3=
EXTT4=
EXTT5=
PLAYORDER=
